<mxfile host="65bd71144e">
    <diagram id="EVbXiR6vjxnwdGpzbaSD" name="Seite-1">
        <mxGraphModel dx="1304" dy="829" grid="1" gridSize="10" guides="1" tooltips="1" connect="1" arrows="1" fold="1" page="1" pageScale="1" pageWidth="827" pageHeight="1169" math="0" shadow="0">
            <root>
                <mxCell id="0"/>
                <mxCell id="1" parent="0"/>
                <mxCell id="3" value="Profil.erstellen()" style="text;strokeColor=none;fillColor=none;html=1;fontSize=24;fontStyle=0;verticalAlign=middle;align=center;" parent="1" vertex="1">
                    <mxGeometry x="360" width="100" height="40" as="geometry"/>
                </mxCell>
                <mxCell id="12" value="Start" style="ellipse;whiteSpace=wrap;html=1;" parent="1" vertex="1">
                    <mxGeometry x="360" y="60" width="100" height="40" as="geometry"/>
                </mxCell>
                <mxCell id="13" value="Ende" style="ellipse;whiteSpace=wrap;html=1;" parent="1" vertex="1">
                    <mxGeometry x="360" y="800" width="100" height="40" as="geometry"/>
                </mxCell>
            </root>
        </mxGraphModel>
    </diagram>
</mxfile>